<?xml version="1.0" encoding="UTF-8"?>
<!DOCTYPE svg PUBLIC "-//W3C//DTD SVG 1.1//EN" "http://www.w3.org/Graphics/SVG/1.1/DTD/svg11.dtd">
<svg xmlns="http://www.w3.org/2000/svg" version="1.1" width="103px" height="88px" style="shape-rendering:geometricPrecision; text-rendering:geometricPrecision; image-rendering:optimizeQuality; fill-rule:evenodd; clip-rule:evenodd" xmlns:xlink="http://www.w3.org/1999/xlink">
<g><path style="opacity:1" fill="#fdfdfc" d="M -0.5,-0.5 C 33.8333,-0.5 68.1667,-0.5 102.5,-0.5C 102.5,28.8333 102.5,58.1667 102.5,87.5C 68.1667,87.5 33.8333,87.5 -0.5,87.5C -0.5,58.1667 -0.5,28.8333 -0.5,-0.5 Z"/></g>
<g><path style="opacity:1" fill="#0c8a94" d="M 4.5,7.5 C 13.3178,6.5067 22.3178,6.17336 31.5,6.5C 28.5,9.83333 25.5,13.1667 22.5,16.5C 19.9407,16.1984 17.6074,16.5318 15.5,17.5C 12.4633,13.4628 8.79665,10.1295 4.5,7.5 Z"/></g>
<g><path style="opacity:1" fill="#edf2d1" d="M 61.5,7.5 C 60.5104,13.31 60.1771,19.31 60.5,25.5C 60.5,25.8333 60.5,26.1667 60.5,26.5C 59.1819,19.9888 59.1819,13.3222 60.5,6.5C 61.1067,6.62358 61.44,6.95691 61.5,7.5 Z"/></g>
<g><path style="opacity:1" fill="#0c617e" d="M 4.5,7.5 C 8.79665,10.1295 12.4633,13.4628 15.5,17.5C 24.479,25.8123 33.1457,34.479 41.5,43.5C 32.8123,52.8543 23.8123,61.8543 14.5,70.5C 10.5,68.5 7.5,65.5 5.5,61.5C 10.5929,55.452 15.9262,49.6187 21.5,44C 16.3787,37.8766 10.8787,32.0433 5,26.5C 4.50046,20.1754 4.33379,13.8421 4.5,7.5 Z"/></g>
<g><path style="opacity:1" fill="#bbda30" d="M 33.5,7.5 C 45.8664,19.1998 57.8664,31.1998 69.5,43.5C 60.4786,52.854 51.4786,62.1873 42.5,71.5C 40.1928,68.3619 37.3594,65.6952 34,63.5C 33.5172,62.552 33.3505,61.552 33.5,60.5C 38.6525,54.8472 43.9858,49.3472 49.5,44C 43.6749,37.3414 37.6749,30.8414 31.5,24.5C 32.1667,18.8333 32.8333,13.1667 33.5,7.5 Z"/></g>
<g><path style="opacity:1" fill="#a4c01f" d="M 61.5,7.5 C 64.5,9.83333 67.1667,12.5 69.5,15.5C 67.1831,19.4818 64.1831,22.8151 60.5,25.5C 60.1771,19.31 60.5104,13.31 61.5,7.5 Z"/></g>
<g><path style="opacity:1" fill="#9abb17" d="M 31.5,6.5 C 32.4916,6.32842 33.1583,6.66175 33.5,7.5C 32.8333,13.1667 32.1667,18.8333 31.5,24.5C 28.5,21.8333 25.5,19.1667 22.5,16.5C 25.5,13.1667 28.5,9.83333 31.5,6.5 Z"/></g>
<g><path style="opacity:1" fill="#cfdf6c" d="M 69.5,15.5 C 77.4649,22.9642 85.2983,30.6309 93,38.5C 94.5387,40.641 95.872,42.641 97,44.5C 84.8333,56.6667 72.6667,68.8333 60.5,81C 50.9908,81.8243 41.6575,81.6576 32.5,80.5C 41.5062,80.6664 50.5062,80.4998 59.5,80C 56.6306,76.9621 53.6306,74.1288 50.5,71.5C 59.4786,62.1873 68.4786,52.854 77.5,43.5C 72.1457,37.479 66.479,31.8123 60.5,26.5C 60.5,26.1667 60.5,25.8333 60.5,25.5C 64.1831,22.8151 67.1831,19.4818 69.5,15.5 Z"/></g>
<g><path style="opacity:1" fill="#0d8b95" d="M 5.5,61.5 C 7.5,65.5 10.5,68.5 14.5,70.5C 11.5375,73.9641 8.37086,77.2975 5,80.5C 4.18003,73.9863 4.3467,67.6529 5.5,61.5 Z"/></g>
<g><path style="opacity:1" fill="#9ebc08" d="M 33.5,60.5 C 33.3505,61.552 33.5172,62.552 34,63.5C 37.3594,65.6952 40.1928,68.3619 42.5,71.5C 45.1667,71.5 47.8333,71.5 50.5,71.5C 53.6306,74.1288 56.6306,76.9621 59.5,80C 50.5062,80.4998 41.5062,80.6664 32.5,80.5C 32.176,73.6457 32.5093,66.979 33.5,60.5 Z"/></g>
</svg>
